<svg xmlns="http://www.w3.org/2000/svg" viewBox="0 0 1440 320"><path fill="#0099ff" fill-opacity="1" d="M0,224L34.3,234.7C68.6,245,137,267,206,277.3C274.3,288,343,288,411,266.7C480,245,549,203,617,192C685.7,181,754,203,823,229.3C891.4,256,960,288,1029,266.7C1097.1,245,1166,171,1234,154.7C1302.9,139,1371,181,1406,202.7L1440,224L1440,0L1405.7,0C1371.4,0,1303,0,1234,0C1165.7,0,1097,0,1029,0C960,0,891,0,823,0C754.3,0,686,0,617,0C548.6,0,480,0,411,0C342.9,0,274,0,206,0C137.1,0,69,0,34,0L0,0Z"></path></svg>