<svg xmlns="http://www.w3.org/2000/svg" viewBox="0 0 1440 320"><path fill="#5F3AC8" fill-opacity="1" d="M0,128L34.3,149.3C68.6,171,137,213,206,224C274.3,235,343,213,411,192C480,171,549,149,617,133.3C685.7,117,754,107,823,122.7C891.4,139,960,181,1029,197.3C1097.1,213,1166,203,1234,192C1302.9,181,1371,171,1406,165.3L1440,160L1440,0L1405.7,0C1371.4,0,1303,0,1234,0C1165.7,0,1097,0,1029,0C960,0,891,0,823,0C754.3,0,686,0,617,0C548.6,0,480,0,411,0C342.9,0,274,0,206,0C137.1,0,69,0,34,0L0,0Z"></path></svg>